<svg width="70" height="70" viewBox="0 0 70 70" fill="none" xmlns="http://www.w3.org/2000/svg">
<circle cx="35" cy="35" r="35" fill="white"/>
<path d="M33.2529 56.4187C20.388 37.7684 18 35.8543 18 29C18 19.6111 25.6111 12 35 12C44.3889 12 52 19.6111 52 29C52 35.8543 49.612 37.7684 36.7471 56.4187C35.9029 57.6383 34.0971 57.6382 33.2529 56.4187ZM35 36.0833C38.912 36.0833 42.0833 32.912 42.0833 29C42.0833 25.088 38.912 21.9167 35 21.9167C31.088 21.9167 27.9167 25.088 27.9167 29C27.9167 32.912 31.088 36.0833 35 36.0833Z" fill="#FF5B00"/>
</svg>
