<svg width="70" height="70" viewBox="0 0 70 70" fill="none" xmlns="http://www.w3.org/2000/svg">
<circle cx="35" cy="35" r="35" fill="white"/>
<path d="M50.0773 22H20.9227C19.3064 22 18 23.3064 18 24.9167V46.3055C18 47.9158 19.3064 49.2222 20.9227 49.2222H50.0773C51.6936 49.2222 53 47.9158 53 46.3055V24.9167C53 23.3064 51.6936 22 50.0773 22ZM21.2873 24.9167H49.7127C49.9132 24.9167 50.0773 25.0807 50.0773 25.2812V27.8333H20.9227V25.2812C20.9227 25.0807 21.0868 24.9167 21.2873 24.9167ZM49.7127 46.3055H21.2873C21.0868 46.3055 20.9227 46.1415 20.9227 45.941V35.6111H50.0773V45.941C50.0773 46.1415 49.9132 46.3055 49.7127 46.3055ZM29.6667 40.2292V42.6597C29.6667 43.0608 29.3385 43.3889 28.9375 43.3889H24.5625C24.1615 43.3889 23.8333 43.0608 23.8333 42.6597V40.2292C23.8333 39.8281 24.1615 39.5 24.5625 39.5H28.9375C29.3385 39.5 29.6667 39.8281 29.6667 40.2292ZM41.3333 40.2292V42.6597C41.3333 43.0608 41.0052 43.3889 40.6042 43.3889H32.3403C31.9392 43.3889 31.6111 43.0608 31.6111 42.6597V40.2292C31.6111 39.8281 31.9392 39.5 32.3403 39.5H40.6042C41.0052 39.5 41.3333 39.8281 41.3333 40.2292Z" fill="#FF5B00"/>
</svg>
